<?xml version="1.0" encoding="UTF-8" standalone="no"?>
<!DOCTYPE svg PUBLIC "-//W3C//DTD SVG 20010904//EN"
              "http://www.w3.org/TR/2001/REC-SVG-20010904/DTD/svg10.dtd">

<svg xmlns="http://www.w3.org/2000/svg"
     width="18.9722in" height="10.6667in"
     viewBox="0 0 1366 768">
  <path id="Path"
        fill="none" stroke="black" stroke-width="1"
        d="M 185.19,298.20
           C 187.33,300.00 175.39,308.34 172.20,309.41
             169.02,310.47 146.09,310.10 143.95,309.69
             143.95,309.69 145.62,296.00 145.62,296.00
             147.10,296.49 162.17,297.57 163.92,296.72
             165.67,295.86 168.77,289.96 168.86,288.17
             168.95,286.38 169.00,254.00 169.00,254.00
             169.00,254.00 153.17,254.00 153.17,254.00
             153.17,254.00 153.17,241.00 153.17,241.00
             153.17,241.00 186.81,241.00 186.81,241.00
             186.81,241.00 186.27,295.56 185.19,298.20 Z
           M 256.14,284.02
           C 256.14,292.70 253.64,299.53 248.64,304.52
             243.65,309.51 236.64,312.00 227.61,312.00
             218.58,312.00 211.56,309.51 206.56,304.52
             201.57,299.53 199.08,292.70 199.08,284.02
             199.08,275.29 201.59,268.44 206.61,263.47
             211.64,258.49 218.64,256.00 227.61,256.00
             236.70,256.00 243.73,258.51 248.69,263.52
             253.66,268.52 256.14,275.35 256.14,284.02 Z
           M 235.58,296.67
           C 236.66,295.34 237.47,293.74 238.02,291.88
             238.55,290.01 238.83,287.42 238.83,284.11
             238.83,281.06 238.55,278.50 237.98,276.44
             237.43,274.37 236.66,272.71 235.67,271.47
             234.68,270.21 233.49,269.32 232.09,268.80
             230.71,268.27 229.21,268.00 227.61,268.00
             226.00,268.00 224.57,268.22 223.31,268.66
             222.06,269.09 220.87,269.95 219.73,271.23
             218.71,272.45 217.90,274.10 217.30,276.20
             216.69,278.30 216.39,280.93 216.39,284.11
             216.39,286.95 216.65,289.42 217.17,291.50
             217.70,293.59 218.48,295.26 219.50,296.53
             220.49,297.73 221.67,298.61 223.05,299.17
             224.42,299.73 225.99,300.00 227.75,300.00
             229.26,300.00 230.70,299.75 232.08,299.23
             233.45,298.73 234.62,297.87 235.58,296.67 Z
           M 313.16,293.72
           C 313.16,299.20 310.74,303.62 305.92,306.97
             301.10,310.32 294.49,312.00 286.11,312.00
             281.47,312.00 277.27,311.56 273.50,310.69
             269.73,309.82 266.70,308.86 264.41,307.80
             264.41,307.80 264.41,294.00 264.41,294.00
             264.41,294.00 265.94,294.00 265.94,294.00
             266.77,294.61 267.73,295.27 268.83,295.98
             269.93,296.70 271.49,297.48 273.50,298.31
             275.23,299.05 277.19,299.69 279.39,300.22
             281.59,300.74 283.94,301.00 286.44,301.00
             289.72,301.00 292.14,300.61 293.72,299.81
             295.30,299.01 296.09,297.83 296.09,296.27
             296.09,294.98 295.63,294.04 294.70,293.45
             293.77,292.87 292.01,292.31 289.41,291.78
             288.18,291.49 286.50,291.18 284.38,290.86
             282.26,290.53 280.34,290.12 278.61,289.64
             273.87,288.38 270.35,286.42 268.06,283.77
             265.78,281.10 264.64,277.78 264.64,273.81
             264.64,268.71 267.01,264.46 271.75,261.08
             276.50,257.70 282.99,256.00 291.22,256.00
             295.11,256.00 298.85,256.40 302.42,257.19
             305.99,257.98 308.79,258.83 310.80,259.73
             310.80,259.73 310.80,273.00 310.80,273.00
             310.80,273.00 309.36,273.00 309.36,273.00
             306.88,271.23 304.05,269.79 300.89,268.67
             297.72,267.56 294.52,267.00 291.27,267.00
             288.57,267.00 286.30,267.41 284.45,268.23
             282.62,269.05 281.70,270.20 281.70,271.69
             281.70,272.95 282.12,273.91 282.95,274.58
             283.79,275.23 285.75,275.90 288.84,276.56
             290.55,276.91 292.38,277.25 294.34,277.58
             296.31,277.90 298.29,278.32 300.27,278.83
             304.65,280.00 307.89,281.84 310.00,284.34
             312.10,286.84 313.16,289.97 313.16,293.72 Z
           M 376.20,310.00
           C 376.20,310.00 359.42,310.00 359.42,310.00
             359.42,310.00 359.42,284.19 359.42,284.19
             359.42,282.09 359.31,279.99 359.09,277.91
             358.88,275.82 358.50,274.29 357.98,273.30
             357.37,272.15 356.46,271.32 355.27,270.80
             354.08,270.27 352.41,270.00 350.28,270.00
             348.76,270.00 347.22,270.25 345.66,270.75
             344.09,271.24 342.40,272.03 340.58,273.11
             340.58,273.11 340.58,310.00 340.58,310.00
             340.58,310.00 323.89,310.00 323.89,310.00
             323.89,310.00 323.89,237.00 323.89,237.00
             323.89,237.00 340.58,237.00 340.58,237.00
             340.58,237.00 340.58,263.25 340.58,263.25
             343.55,260.91 346.39,259.12 349.12,257.88
             351.86,256.62 354.91,256.00 358.25,256.00
             363.88,256.00 368.27,257.66 371.44,260.97
             374.61,264.27 376.20,269.21 376.20,275.80
             376.20,275.80 376.20,310.00 376.20,310.00 Z
           M 443.80,310.00
           C 443.80,310.00 427.09,310.00 427.09,310.00
             427.09,310.00 427.09,304.75 427.09,304.75
             424.00,307.12 421.16,308.93 418.59,310.16
             416.03,311.38 412.97,312.00 409.42,312.00
             403.67,312.00 399.24,310.33 396.12,307.00
             393.02,303.66 391.47,298.73 391.47,292.20
             391.47,292.20 391.47,258.00 391.47,258.00
             391.47,258.00 408.27,258.00 408.27,258.00
             408.27,258.00 408.27,283.81 408.27,283.81
             408.27,286.44 408.35,288.62 408.52,290.38
             408.69,292.12 409.09,293.57 409.70,294.70
             410.29,295.85 411.17,296.69 412.36,297.22
             413.55,297.74 415.22,298.00 417.36,298.00
             418.77,298.00 420.35,297.74 422.08,297.22
             423.82,296.69 425.49,295.91 427.09,294.89
             427.09,294.89 427.09,258.00 427.09,258.00
             427.09,258.00 443.80,258.00 443.80,258.00
             443.80,258.00 443.80,310.00 443.80,310.00 Z
           M 491.42,297.17
           C 491.42,297.17 491.42,286.00 491.42,286.00
             489.16,286.19 486.72,286.45 484.09,286.80
             481.47,287.13 479.47,287.52 478.11,287.95
             476.44,288.50 475.16,289.29 474.28,290.33
             473.41,291.36 472.97,292.72 472.97,294.41
             472.97,295.52 473.06,296.43 473.25,297.14
             473.44,297.84 473.90,298.51 474.64,299.14
             475.35,299.78 476.20,300.25 477.19,300.55
             478.18,300.85 479.72,301.00 481.83,301.00
             483.49,301.00 485.18,300.65 486.89,299.95
             488.61,299.25 490.12,298.32 491.42,297.17 Z
           M 491.42,304.48
           C 490.52,305.16 489.41,305.98 488.08,306.94
             486.75,307.90 485.50,308.66 484.33,309.22
             482.68,310.05 480.98,310.72 479.22,311.23
             477.46,311.74 475.52,312.00 473.42,312.00
             468.47,312.00 464.33,310.45 460.98,307.36
             457.65,304.27 455.98,300.31 455.98,295.50
             455.98,291.66 456.83,288.52 458.53,286.08
             460.24,283.64 462.65,281.72 465.77,280.31
             468.86,278.91 472.69,277.91 477.27,277.31
             481.85,276.72 486.60,276.28 491.52,276.00
             491.52,276.00 491.52,275.69 491.52,275.69
             491.52,272.41 490.34,270.14 487.98,268.89
             485.64,267.63 482.18,267.00 477.59,267.00
             474.84,267.00 471.91,267.53 468.78,268.58
             465.66,269.63 463.43,270.44 462.06,271.00
             462.06,271.00 460.53,271.00 460.53,271.00
             460.53,271.00 460.53,258.56 460.53,258.56
             462.29,258.11 465.16,257.56 469.12,256.94
             473.10,256.31 477.09,256.00 481.08,256.00
             490.58,256.00 497.44,257.48 501.66,260.42
             505.88,263.37 507.98,267.99 507.98,274.28
             507.98,274.28 507.98,310.00 507.98,310.00
             507.98,310.00 491.42,310.00 491.42,310.00
             491.42,310.00 491.42,304.48 491.42,304.48 Z
           M 605.31,254.00
           C 605.31,254.00 573.53,254.00 573.53,254.00
             573.53,254.00 573.53,267.00 573.53,267.00
             573.53,267.00 602.98,267.00 602.98,267.00
             602.98,267.00 602.98,280.00 602.98,280.00
             602.98,280.00 573.53,280.00 573.53,280.00
             573.53,280.00 573.53,310.00 573.53,310.00
             573.53,310.00 555.81,310.00 555.81,310.00
             555.81,310.00 555.81,241.00 555.81,241.00
             555.81,241.00 605.31,241.00 605.31,241.00
             605.31,241.00 605.31,254.00 605.31,254.00 Z
           M 668.19,287.00
           C 668.19,287.00 629.97,287.00 629.97,287.00
             630.22,291.21 631.77,294.43 634.62,296.66
             637.49,298.89 641.70,300.00 647.27,300.00
             650.80,300.00 654.21,299.37 657.52,298.09
             660.83,296.82 663.44,295.46 665.36,294.00
             665.36,294.00 667.22,294.00 667.22,294.00
             667.22,294.00 667.22,307.62 667.22,307.62
             663.45,309.16 659.89,310.27 656.55,310.95
             653.20,311.65 649.50,312.00 645.45,312.00
             635.00,312.00 626.99,309.62 621.42,304.84
             615.86,300.06 613.08,293.26 613.08,284.42
             613.08,275.68 615.71,268.76 620.98,263.66
             626.25,258.55 633.48,256.00 642.67,256.00
             651.15,256.00 657.52,258.16 661.78,262.48
             666.05,266.80 668.19,273.01 668.19,281.11
             668.19,281.11 668.19,287.00 668.19,287.00 Z
           M 651.58,277.00
           C 651.48,273.68 650.62,271.18 648.98,269.52
             647.35,267.84 644.80,267.00 641.33,267.00
             638.11,267.00 635.46,267.79 633.39,269.38
             631.33,270.96 630.17,273.50 629.92,277.00
             629.92,277.00 651.58,277.00 651.58,277.00 Z
           M 717.64,274.00
           C 717.64,274.00 716.16,274.00 716.16,274.00
             715.45,273.67 714.30,273.42 712.72,273.25
             711.14,273.09 709.83,273.00 708.78,273.00
             706.39,273.00 704.29,273.16 702.47,273.47
             700.64,273.78 698.68,274.31 696.58,275.05
             696.58,275.05 696.58,310.00 696.58,310.00
             696.58,310.00 679.89,310.00 679.89,310.00
             679.89,310.00 679.89,258.00 679.89,258.00
             679.89,258.00 696.58,258.00 696.58,258.00
             696.58,258.00 696.58,265.66 696.58,265.66
             700.25,262.50 703.45,260.44 706.17,259.47
             708.90,258.49 711.41,258.00 713.70,258.00
             714.29,258.00 714.95,258.02 715.69,258.05
             716.44,258.08 717.09,258.12 717.64,258.19
             717.64,258.19 717.64,274.00 717.64,274.00 Z
           M 779.20,310.00
           C 779.20,310.00 762.42,310.00 762.42,310.00
             762.42,310.00 762.42,284.19 762.42,284.19
             762.42,282.09 762.31,279.99 762.09,277.91
             761.88,275.82 761.50,274.29 760.98,273.30
             760.37,272.15 759.46,271.32 758.27,270.80
             757.08,270.27 755.41,270.00 753.28,270.00
             751.76,270.00 750.22,270.25 748.66,270.75
             747.09,271.24 745.40,272.03 743.58,273.11
             743.58,273.11 743.58,310.00 743.58,310.00
             743.58,310.00 726.89,310.00 726.89,310.00
             726.89,310.00 726.89,258.00 726.89,258.00
             726.89,258.00 743.58,258.00 743.58,258.00
             743.58,258.00 743.58,263.25 743.58,263.25
             746.55,260.91 749.39,259.12 752.12,257.88
             754.86,256.62 757.91,256.00 761.25,256.00
             766.88,256.00 771.27,257.66 774.44,260.97
             777.61,264.27 779.20,269.21 779.20,275.80
             779.20,275.80 779.20,310.00 779.20,310.00 Z
           M 826.42,297.17
           C 826.42,297.17 826.42,286.00 826.42,286.00
             824.16,286.19 821.72,286.45 819.09,286.80
             816.47,287.13 814.47,287.52 813.11,287.95
             811.44,288.50 810.16,289.29 809.28,290.33
             808.41,291.36 807.97,292.72 807.97,294.41
             807.97,295.52 808.06,296.43 808.25,297.14
             808.44,297.84 808.90,298.51 809.64,299.14
             810.35,299.78 811.20,300.25 812.19,300.55
             813.18,300.85 814.72,301.00 816.83,301.00
             818.49,301.00 820.18,300.65 821.89,299.95
             823.61,299.25 825.12,298.32 826.42,297.17 Z
           M 826.42,304.48
           C 825.52,305.16 824.41,305.98 823.08,306.94
             821.75,307.90 820.50,308.66 819.33,309.22
             817.68,310.05 815.98,310.72 814.22,311.23
             812.46,311.74 810.52,312.00 808.42,312.00
             803.47,312.00 799.33,310.45 795.98,307.36
             792.65,304.27 790.98,300.31 790.98,295.50
             790.98,291.66 791.83,288.52 793.53,286.08
             795.24,283.64 797.65,281.72 800.77,280.31
             803.86,278.91 807.69,277.91 812.27,277.31
             816.85,276.72 821.60,276.28 826.52,276.00
             826.52,276.00 826.52,275.69 826.52,275.69
             826.52,272.41 825.34,270.14 822.98,268.89
             820.64,267.63 817.18,267.00 812.59,267.00
             809.84,267.00 806.91,267.53 803.78,268.58
             800.66,269.63 798.43,270.44 797.06,271.00
             797.06,271.00 795.53,271.00 795.53,271.00
             795.53,271.00 795.53,258.56 795.53,258.56
             797.29,258.11 800.16,257.56 804.12,256.94
             808.10,256.31 812.09,256.00 816.08,256.00
             825.58,256.00 832.44,257.48 836.66,260.42
             840.88,263.37 842.98,267.99 842.98,274.28
             842.98,274.28 842.98,310.00 842.98,310.00
             842.98,310.00 826.42,310.00 826.42,310.00
             826.42,310.00 826.42,304.48 826.42,304.48 Z
           M 910.20,310.00
           C 910.20,310.00 893.42,310.00 893.42,310.00
             893.42,310.00 893.42,284.19 893.42,284.19
             893.42,282.09 893.31,279.99 893.09,277.91
             892.88,275.82 892.50,274.29 891.98,273.30
             891.37,272.15 890.46,271.32 889.27,270.80
             888.08,270.27 886.41,270.00 884.28,270.00
             882.76,270.00 881.22,270.25 879.66,270.75
             878.09,271.24 876.40,272.03 874.58,273.11
             874.58,273.11 874.58,310.00 874.58,310.00
             874.58,310.00 857.89,310.00 857.89,310.00
             857.89,310.00 857.89,258.00 857.89,258.00
             857.89,258.00 874.58,258.00 874.58,258.00
             874.58,258.00 874.58,263.25 874.58,263.25
             877.55,260.91 880.39,259.12 883.12,257.88
             885.86,256.62 888.91,256.00 892.25,256.00
             897.88,256.00 902.27,257.66 905.44,260.97
             908.61,264.27 910.20,269.21 910.20,275.80
             910.20,275.80 910.20,310.00 910.20,310.00 Z
           M 976.55,310.00
           C 976.55,310.00 959.84,310.00 959.84,310.00
             959.84,310.00 959.84,304.58 959.84,304.58
             956.97,306.92 954.27,308.75 951.77,310.05
             949.27,311.35 946.38,312.00 943.09,312.00
             936.75,312.00 931.68,309.51 927.88,304.53
             924.07,299.55 922.17,292.84 922.17,284.41
             922.17,279.90 922.81,275.90 924.09,272.42
             925.38,268.95 927.13,265.96 929.36,263.47
             931.46,261.11 934.02,259.27 937.02,257.97
             940.02,256.66 943.02,256.00 946.02,256.00
             949.14,256.00 951.70,256.34 953.69,257.00
             955.69,257.67 957.74,258.51 959.84,259.53
             959.84,259.53 959.84,237.00 959.84,237.00
             959.84,237.00 976.55,237.00 976.55,237.00
             976.55,237.00 976.55,310.00 976.55,310.00 Z
           M 959.84,295.80
           C 959.84,295.80 959.84,269.44 959.84,269.44
             958.66,268.93 957.43,268.56 956.12,268.34
             954.83,268.12 953.64,268.00 952.56,268.00
             948.16,268.00 944.87,269.41 942.67,272.23
             940.48,275.06 939.39,278.98 939.39,283.98
             939.39,289.25 940.27,293.06 942.03,295.44
             943.79,297.81 946.62,299.00 950.52,299.00
             952.04,299.00 953.64,298.71 955.34,298.12
             957.04,297.53 958.54,296.76 959.84,295.80 Z
           M 1043.19,287.00
           C 1043.19,287.00 1004.97,287.00 1004.97,287.00
             1005.22,291.21 1006.77,294.43 1009.62,296.66
             1012.49,298.89 1016.70,300.00 1022.27,300.00
             1025.80,300.00 1029.21,299.37 1032.52,298.09
             1035.83,296.82 1038.44,295.46 1040.36,294.00
             1040.36,294.00 1042.22,294.00 1042.22,294.00
             1042.22,294.00 1042.22,307.62 1042.22,307.62
             1038.45,309.16 1034.89,310.27 1031.55,310.95
             1028.20,311.65 1024.50,312.00 1020.45,312.00
             1010.00,312.00 1001.99,309.62 996.42,304.84
             990.86,300.06 988.08,293.26 988.08,284.42
             988.08,275.68 990.71,268.76 995.98,263.66
             1001.25,258.55 1008.48,256.00 1017.67,256.00
             1026.15,256.00 1032.52,258.16 1036.78,262.48
             1041.05,266.80 1043.19,273.01 1043.19,281.11
             1043.19,281.11 1043.19,287.00 1043.19,287.00 Z
           M 1026.58,277.00
           C 1026.48,273.68 1025.62,271.18 1023.98,269.52
             1022.35,267.84 1019.80,267.00 1016.33,267.00
             1013.11,267.00 1010.46,267.79 1008.39,269.38
             1006.33,270.96 1005.17,273.50 1004.92,277.00
             1004.92,277.00 1026.58,277.00 1026.58,277.00 Z
           M 1100.16,293.72
           C 1100.16,299.20 1097.74,303.62 1092.92,306.97
             1088.10,310.32 1081.49,312.00 1073.11,312.00
             1068.47,312.00 1064.27,311.56 1060.50,310.69
             1056.73,309.82 1053.70,308.86 1051.41,307.80
             1051.41,307.80 1051.41,294.00 1051.41,294.00
             1051.41,294.00 1052.94,294.00 1052.94,294.00
             1053.77,294.61 1054.73,295.27 1055.83,295.98
             1056.93,296.70 1058.49,297.48 1060.50,298.31
             1062.23,299.05 1064.19,299.69 1066.39,300.22
             1068.59,300.74 1070.94,301.00 1073.44,301.00
             1076.72,301.00 1079.14,300.61 1080.72,299.81
             1082.30,299.01 1083.09,297.83 1083.09,296.27
             1083.09,294.98 1082.63,294.04 1081.70,293.45
             1080.77,292.87 1079.01,292.31 1076.41,291.78
             1075.18,291.49 1073.50,291.18 1071.38,290.86
             1069.26,290.53 1067.34,290.12 1065.61,289.64
             1060.87,288.38 1057.35,286.42 1055.06,283.77
             1052.78,281.10 1051.64,277.78 1051.64,273.81
             1051.64,268.71 1054.01,264.46 1058.75,261.08
             1063.50,257.70 1069.99,256.00 1078.22,256.00
             1082.11,256.00 1085.85,256.40 1089.42,257.19
             1092.99,257.98 1095.79,258.83 1097.80,259.73
             1097.80,259.73 1097.80,273.00 1097.80,273.00
             1097.80,273.00 1096.36,273.00 1096.36,273.00
             1093.88,271.23 1091.05,269.79 1087.89,268.67
             1084.72,267.56 1081.52,267.00 1078.27,267.00
             1075.57,267.00 1073.30,267.41 1071.45,268.23
             1069.62,269.05 1068.70,270.20 1068.70,271.69
             1068.70,272.95 1069.12,273.91 1069.95,274.58
             1070.79,275.23 1072.75,275.90 1075.84,276.56
             1077.55,276.91 1079.38,277.25 1081.34,277.58
             1083.31,277.90 1085.29,278.32 1087.27,278.83
             1091.65,280.00 1094.89,281.84 1097.00,284.34
             1099.10,286.84 1100.16,289.97 1100.16,293.72 Z" />
</svg>
